<mxfile host="app.diagrams.net" agent="Mozilla/5.0 (Windows NT 10.0; Win64; x64) AppleWebKit/537.36 (KHTML, like Gecko) Chrome/140.0.0.0 Safari/537.36 Edg/140.0.0.0" version="28.2.5">
  <diagram name="Страница — 1" id="H75oZ6ihoNgn9VcKOOQY">
    <mxGraphModel dx="1378" dy="794" grid="1" gridSize="10" guides="1" tooltips="1" connect="1" arrows="1" fold="1" page="1" pageScale="1" pageWidth="827" pageHeight="1169" math="0" shadow="0">
      <root>
        <mxCell id="0" />
        <mxCell id="1" parent="0" />
        <mxCell id="rdrYBMOyjr8i79QidUvX-1" value="" style="rounded=0;whiteSpace=wrap;html=1;fillColor=#f8cecc;strokeColor=#b85450;gradientColor=#ea6b66;" vertex="1" parent="1">
          <mxGeometry x="200" y="40" width="400" height="720" as="geometry" />
        </mxCell>
        <mxCell id="rdrYBMOyjr8i79QidUvX-2" value="" style="rounded=0;whiteSpace=wrap;html=1;fillColor=#f5f5f5;gradientColor=#b3b3b3;strokeColor=#666666;" vertex="1" parent="1">
          <mxGeometry x="200" y="190" width="400" height="580" as="geometry" />
        </mxCell>
        <mxCell id="rdrYBMOyjr8i79QidUvX-3" value="&lt;font face=&quot;Georgia&quot;&gt;&lt;span style=&quot;font-size: 70px;&quot;&gt;Name&lt;/span&gt;&lt;/font&gt;" style="text;html=1;align=center;verticalAlign=middle;whiteSpace=wrap;rounded=0;shadow=1;glass=0;" vertex="1" parent="1">
          <mxGeometry x="255" y="60" width="290" height="110" as="geometry" />
        </mxCell>
        <mxCell id="rdrYBMOyjr8i79QidUvX-4" value="name" style="text;html=1;align=center;verticalAlign=middle;whiteSpace=wrap;rounded=0;glass=0;opacity=0;fillColor=default;textOpacity=50;" vertex="1" parent="1">
          <mxGeometry x="285" y="140" width="230" height="62" as="geometry" />
        </mxCell>
        <mxCell id="rdrYBMOyjr8i79QidUvX-5" value="" style="rounded=0;whiteSpace=wrap;html=1;" vertex="1" parent="1">
          <mxGeometry x="230" y="230" width="340" height="210" as="geometry" />
        </mxCell>
        <mxCell id="rdrYBMOyjr8i79QidUvX-6" value="" style="ellipse;whiteSpace=wrap;html=1;" vertex="1" parent="1">
          <mxGeometry x="250" y="240" width="20" height="20" as="geometry" />
        </mxCell>
        <mxCell id="rdrYBMOyjr8i79QidUvX-7" value="&lt;font style=&quot;font-size: 34px;&quot;&gt;...&lt;/font&gt;" style="text;html=1;align=center;verticalAlign=middle;whiteSpace=wrap;rounded=0;" vertex="1" parent="1">
          <mxGeometry x="270" y="230" width="60" height="30" as="geometry" />
        </mxCell>
        <mxCell id="rdrYBMOyjr8i79QidUvX-8" value="" style="rounded=0;whiteSpace=wrap;html=1;" vertex="1" parent="1">
          <mxGeometry x="230" y="490" width="340" height="30" as="geometry" />
        </mxCell>
        <mxCell id="rdrYBMOyjr8i79QidUvX-9" value="НАПИШИТЕ НОВУЮ ЗАДАЧУ" style="text;html=1;align=center;verticalAlign=middle;whiteSpace=wrap;rounded=0;" vertex="1" parent="1">
          <mxGeometry x="150" y="450" width="340" height="40" as="geometry" />
        </mxCell>
        <mxCell id="rdrYBMOyjr8i79QidUvX-10" value="ДОБАВИТЬ" style="rounded=0;whiteSpace=wrap;html=1;" vertex="1" parent="1">
          <mxGeometry x="450" y="700" width="120" height="40" as="geometry" />
        </mxCell>
        <mxCell id="rdrYBMOyjr8i79QidUvX-11" value="СПИСОК ЗАДАЧ" style="text;html=1;align=center;verticalAlign=middle;whiteSpace=wrap;rounded=0;" vertex="1" parent="1">
          <mxGeometry x="230" y="200" width="120" height="30" as="geometry" />
        </mxCell>
        <mxCell id="rdrYBMOyjr8i79QidUvX-12" value="" style="rounded=0;whiteSpace=wrap;html=1;" vertex="1" parent="1">
          <mxGeometry x="230" y="630" width="340" height="60" as="geometry" />
        </mxCell>
        <mxCell id="rdrYBMOyjr8i79QidUvX-13" value="" style="ellipse;whiteSpace=wrap;html=1;fillColor=#f8cecc;strokeColor=#b85450;gradientColor=#ea6b66;" vertex="1" parent="1">
          <mxGeometry x="260" y="645" width="30" height="30" as="geometry" />
        </mxCell>
        <mxCell id="rdrYBMOyjr8i79QidUvX-14" value="" style="ellipse;whiteSpace=wrap;html=1;fillColor=#ffcd28;strokeColor=#d79b00;gradientColor=#ffa500;" vertex="1" parent="1">
          <mxGeometry x="300" y="645" width="30" height="30" as="geometry" />
        </mxCell>
        <mxCell id="rdrYBMOyjr8i79QidUvX-15" value="" style="ellipse;whiteSpace=wrap;html=1;fillColor=#fff2cc;strokeColor=#d6b656;gradientColor=#ffd966;" vertex="1" parent="1">
          <mxGeometry x="340" y="645" width="30" height="30" as="geometry" />
        </mxCell>
        <mxCell id="rdrYBMOyjr8i79QidUvX-16" value="" style="ellipse;whiteSpace=wrap;html=1;fillColor=#d5e8d4;strokeColor=#82b366;gradientColor=#97d077;" vertex="1" parent="1">
          <mxGeometry x="385" y="645" width="30" height="30" as="geometry" />
        </mxCell>
        <mxCell id="rdrYBMOyjr8i79QidUvX-17" value="" style="ellipse;whiteSpace=wrap;html=1;fillColor=#dae8fc;strokeColor=#6c8ebf;gradientColor=#7ea6e0;" vertex="1" parent="1">
          <mxGeometry x="430" y="645" width="30" height="30" as="geometry" />
        </mxCell>
        <mxCell id="rdrYBMOyjr8i79QidUvX-18" value="" style="ellipse;whiteSpace=wrap;html=1;fillColor=#fad9d5;strokeColor=#ae4132;" vertex="1" parent="1">
          <mxGeometry x="470" y="645" width="30" height="30" as="geometry" />
        </mxCell>
        <mxCell id="rdrYBMOyjr8i79QidUvX-19" value="" style="ellipse;whiteSpace=wrap;html=1;fillColor=#cce5ff;strokeColor=#36393d;" vertex="1" parent="1">
          <mxGeometry x="470" y="645" width="30" height="30" as="geometry" />
        </mxCell>
        <mxCell id="rdrYBMOyjr8i79QidUvX-20" value="" style="ellipse;whiteSpace=wrap;html=1;fillColor=#e6d0de;strokeColor=#996185;gradientColor=#d5739d;" vertex="1" parent="1">
          <mxGeometry x="510" y="645" width="30" height="30" as="geometry" />
        </mxCell>
        <mxCell id="rdrYBMOyjr8i79QidUvX-21" value="ВЫБЕРИТЕ ЦВЕТ ТЕГА" style="text;html=1;align=center;verticalAlign=middle;whiteSpace=wrap;rounded=0;" vertex="1" parent="1">
          <mxGeometry x="230" y="600" width="160" height="30" as="geometry" />
        </mxCell>
        <mxCell id="rdrYBMOyjr8i79QidUvX-22" value="" style="ellipse;whiteSpace=wrap;html=1;" vertex="1" parent="1">
          <mxGeometry x="250" y="280" width="20" height="20" as="geometry" />
        </mxCell>
        <mxCell id="rdrYBMOyjr8i79QidUvX-23" value="&lt;font style=&quot;font-size: 34px;&quot;&gt;...&lt;/font&gt;" style="text;html=1;align=center;verticalAlign=middle;whiteSpace=wrap;rounded=0;" vertex="1" parent="1">
          <mxGeometry x="270" y="270" width="60" height="30" as="geometry" />
        </mxCell>
        <mxCell id="rdrYBMOyjr8i79QidUvX-24" value="" style="ellipse;whiteSpace=wrap;html=1;" vertex="1" parent="1">
          <mxGeometry x="250" y="320" width="20" height="20" as="geometry" />
        </mxCell>
        <mxCell id="rdrYBMOyjr8i79QidUvX-25" value="&lt;font style=&quot;font-size: 34px;&quot;&gt;...&lt;/font&gt;" style="text;html=1;align=center;verticalAlign=middle;whiteSpace=wrap;rounded=0;" vertex="1" parent="1">
          <mxGeometry x="270" y="310" width="60" height="30" as="geometry" />
        </mxCell>
        <mxCell id="rdrYBMOyjr8i79QidUvX-26" value="" style="ellipse;whiteSpace=wrap;html=1;" vertex="1" parent="1">
          <mxGeometry x="250" y="360" width="20" height="20" as="geometry" />
        </mxCell>
        <mxCell id="rdrYBMOyjr8i79QidUvX-27" value="&lt;font style=&quot;font-size: 34px;&quot;&gt;...&lt;/font&gt;" style="text;html=1;align=center;verticalAlign=middle;whiteSpace=wrap;rounded=0;" vertex="1" parent="1">
          <mxGeometry x="270" y="350" width="60" height="30" as="geometry" />
        </mxCell>
        <mxCell id="rdrYBMOyjr8i79QidUvX-28" value="&lt;font style=&quot;font-size: 32px;&quot;&gt;...&lt;/font&gt;" style="text;html=1;align=center;verticalAlign=middle;whiteSpace=wrap;rounded=0;" vertex="1" parent="1">
          <mxGeometry x="225" y="490" width="60" height="30" as="geometry" />
        </mxCell>
        <mxCell id="rdrYBMOyjr8i79QidUvX-29" value="МЕСТОПОЛОЖЕНИЕ ЗАДАЧИ" style="text;html=1;align=center;verticalAlign=middle;whiteSpace=wrap;rounded=0;" vertex="1" parent="1">
          <mxGeometry x="400" y="200" width="180" height="30" as="geometry" />
        </mxCell>
        <mxCell id="rdrYBMOyjr8i79QidUvX-32" value="" style="ellipse;whiteSpace=wrap;html=1;" vertex="1" parent="1">
          <mxGeometry x="400" y="240" width="20" height="20" as="geometry" />
        </mxCell>
        <mxCell id="rdrYBMOyjr8i79QidUvX-33" value="&lt;font style=&quot;font-size: 34px;&quot;&gt;...&lt;/font&gt;" style="text;html=1;align=center;verticalAlign=middle;whiteSpace=wrap;rounded=0;" vertex="1" parent="1">
          <mxGeometry x="420" y="230" width="60" height="30" as="geometry" />
        </mxCell>
        <mxCell id="rdrYBMOyjr8i79QidUvX-36" value="" style="ellipse;whiteSpace=wrap;html=1;" vertex="1" parent="1">
          <mxGeometry x="400" y="280" width="20" height="20" as="geometry" />
        </mxCell>
        <mxCell id="rdrYBMOyjr8i79QidUvX-37" value="&lt;font style=&quot;font-size: 34px;&quot;&gt;...&lt;/font&gt;" style="text;html=1;align=center;verticalAlign=middle;whiteSpace=wrap;rounded=0;" vertex="1" parent="1">
          <mxGeometry x="420" y="270" width="60" height="30" as="geometry" />
        </mxCell>
        <mxCell id="rdrYBMOyjr8i79QidUvX-38" value="" style="ellipse;whiteSpace=wrap;html=1;" vertex="1" parent="1">
          <mxGeometry x="400" y="320" width="20" height="20" as="geometry" />
        </mxCell>
        <mxCell id="rdrYBMOyjr8i79QidUvX-39" value="&lt;font style=&quot;font-size: 34px;&quot;&gt;...&lt;/font&gt;" style="text;html=1;align=center;verticalAlign=middle;whiteSpace=wrap;rounded=0;" vertex="1" parent="1">
          <mxGeometry x="420" y="310" width="60" height="30" as="geometry" />
        </mxCell>
        <mxCell id="rdrYBMOyjr8i79QidUvX-40" value="" style="ellipse;whiteSpace=wrap;html=1;" vertex="1" parent="1">
          <mxGeometry x="400" y="360" width="20" height="20" as="geometry" />
        </mxCell>
        <mxCell id="rdrYBMOyjr8i79QidUvX-41" value="&lt;font style=&quot;font-size: 34px;&quot;&gt;...&lt;/font&gt;" style="text;html=1;align=center;verticalAlign=middle;whiteSpace=wrap;rounded=0;" vertex="1" parent="1">
          <mxGeometry x="420" y="350" width="60" height="30" as="geometry" />
        </mxCell>
        <mxCell id="rdrYBMOyjr8i79QidUvX-45" value="" style="rounded=0;whiteSpace=wrap;html=1;" vertex="1" parent="1">
          <mxGeometry x="230" y="570" width="340" height="30" as="geometry" />
        </mxCell>
        <mxCell id="rdrYBMOyjr8i79QidUvX-46" value="&lt;font style=&quot;font-size: 32px;&quot;&gt;...&lt;/font&gt;" style="text;html=1;align=center;verticalAlign=middle;whiteSpace=wrap;rounded=0;" vertex="1" parent="1">
          <mxGeometry x="225" y="565" width="60" height="30" as="geometry" />
        </mxCell>
        <mxCell id="rdrYBMOyjr8i79QidUvX-47" value="НАПИШИТЕ МЕСТОПОЛОЖЕНИЕ К ЗАДАЧЕ" style="text;html=1;align=center;verticalAlign=middle;whiteSpace=wrap;rounded=0;" vertex="1" parent="1">
          <mxGeometry x="225" y="530" width="275" height="30" as="geometry" />
        </mxCell>
        <mxCell id="rdrYBMOyjr8i79QidUvX-48" value="" style="endArrow=none;html=1;rounded=0;entryX=0.418;entryY=0;entryDx=0;entryDy=0;entryPerimeter=0;" edge="1" parent="1" target="rdrYBMOyjr8i79QidUvX-5">
          <mxGeometry width="50" height="50" relative="1" as="geometry">
            <mxPoint x="373" y="440" as="sourcePoint" />
            <mxPoint x="370" y="240" as="targetPoint" />
          </mxGeometry>
        </mxCell>
      </root>
    </mxGraphModel>
  </diagram>
</mxfile>
